<svg width="32" height="32" viewBox="0 0 32 32" fill="none" xmlns="http://www.w3.org/2000/svg">
  <g clip-path="url(#clip0_9_88)">
    <path d="M16 20C18.2091 20 20 18.2092 20 16C20 13.7909 18.2091 12 16 12C13.7909 12 12 13.7909 12 16C12 18.2092 13.7909 20 16 20Z" stroke="#F1F1F1" stroke-width="2.5" stroke-linecap="round" stroke-linejoin="round"/>
    <path d="M25.8667 20C25.6892 20.4022 25.6362 20.8483 25.7147 21.2808C25.7931 21.7134 25.9993 22.1125 26.3067 22.4267L26.3867 22.5067C26.6346 22.7544 26.8313 23.0485 26.9655 23.3722C27.0997 23.6959 27.1688 24.0429 27.1688 24.3934C27.1688 24.7438 27.0997 25.0908 26.9655 25.4145C26.8313 25.7383 26.6346 26.0324 26.3867 26.28C26.139 26.528 25.8449 26.7247 25.5212 26.8589C25.1974 26.9931 24.8504 27.0621 24.5 27.0621C24.1496 27.0621 23.8025 26.9931 23.4788 26.8589C23.1551 26.7247 22.861 26.528 22.6133 26.28L22.5333 26.2C22.2191 25.8927 21.82 25.6865 21.3874 25.608C20.9549 25.5296 20.5088 25.5826 20.1067 25.76C19.7123 25.9291 19.376 26.2097 19.1391 26.5674C18.9022 26.9251 18.775 27.3443 18.7733 27.7734V28C18.7733 28.7073 18.4924 29.3856 17.9923 29.8857C17.4922 30.3858 16.8139 30.6667 16.1067 30.6667C15.3994 30.6667 14.7211 30.3858 14.221 29.8857C13.7209 29.3856 13.44 28.7073 13.44 28V27.88C13.4297 27.4387 13.2868 27.0107 13.03 26.6516C12.7732 26.2926 12.4143 26.0191 12 25.8667C11.5978 25.6892 11.1517 25.6363 10.7192 25.7147C10.2867 25.7931 9.88757 25.9993 9.57333 26.3067L9.49333 26.3867C9.24567 26.6346 8.95156 26.8313 8.62784 26.9655C8.30411 27.0997 7.9571 27.1688 7.60666 27.1688C7.25622 27.1688 6.90922 27.0997 6.58549 26.9655C6.26176 26.8313 5.96766 26.6346 5.72 26.3867C5.47206 26.139 5.27537 25.8449 5.14117 25.5212C5.00697 25.1975 4.9379 24.8505 4.9379 24.5C4.9379 24.1496 5.00697 23.8026 5.14117 23.4789C5.27537 23.1551 5.47206 22.861 5.72 22.6134L5.79999 22.5334C6.10738 22.2191 6.31358 21.82 6.392 21.3875C6.47043 20.955 6.41748 20.5089 6.24 20.1067C6.07098 19.7123 5.79034 19.376 5.43262 19.1391C5.0749 18.9022 4.65571 18.7751 4.22666 18.7734H3.99999C3.29275 18.7734 2.61447 18.4924 2.11438 17.9923C1.61428 17.4922 1.33333 16.814 1.33333 16.1067C1.33333 15.3995 1.61428 14.7212 2.11438 14.2211C2.61447 13.721 3.29275 13.44 3.99999 13.44H4.11999C4.56132 13.4297 4.98933 13.2869 5.34839 13.0301C5.70745 12.7732 5.98095 12.4144 6.13333 12C6.31082 11.5979 6.36376 11.1518 6.28533 10.7193C6.20691 10.2867 6.00071 9.88761 5.69333 9.57337L5.61333 9.49337C5.36539 9.24571 5.1687 8.95161 5.0345 8.62788C4.9003 8.30415 4.83123 7.95715 4.83123 7.60671C4.83123 7.25627 4.9003 6.90926 5.0345 6.58553C5.1687 6.2618 5.36539 5.9677 5.61333 5.72004C5.86099 5.4721 6.15509 5.27541 6.47882 5.14121C6.80255 5.00702 7.14955 4.93794 7.5 4.93794C7.85044 4.93794 8.19744 5.00702 8.52117 5.14121C8.8449 5.27541 9.139 5.4721 9.38666 5.72004L9.46666 5.80004C9.7809 6.10742 10.18 6.31362 10.6125 6.39205C11.0451 6.47047 11.4912 6.41753 11.8933 6.24004H12C12.3944 6.07102 12.7307 5.79038 12.9676 5.43266C13.2045 5.07494 13.3316 4.65576 13.3333 4.22671V4.00004C13.3333 3.2928 13.6143 2.61452 14.1144 2.11442C14.6145 1.61433 15.2928 1.33337 16 1.33337C16.7072 1.33337 17.3855 1.61433 17.8856 2.11442C18.3857 2.61452 18.6667 3.2928 18.6667 4.00004V4.12004C18.6684 4.54909 18.7955 4.96827 19.0324 5.32599C19.2693 5.68372 19.6056 5.96436 20 6.13337C20.4022 6.31086 20.8483 6.36381 21.2808 6.28538C21.7133 6.20696 22.1124 6.00076 22.4267 5.69337L22.5067 5.61337C22.7543 5.36544 23.0484 5.16875 23.3722 5.03455C23.6959 4.90035 24.0429 4.83128 24.3933 4.83128C24.7438 4.83128 25.0908 4.90035 25.4145 5.03455C25.7382 5.16875 26.0323 5.36544 26.28 5.61337C26.5279 5.86104 26.7246 6.15514 26.8588 6.47887C26.993 6.80259 27.0621 7.1496 27.0621 7.50004C27.0621 7.85048 26.993 8.19749 26.8588 8.52121C26.7246 8.84494 26.5279 9.13905 26.28 9.38671L26.2 9.46671C25.8926 9.78095 25.6864 10.1801 25.608 10.6126C25.5296 11.0451 25.5825 11.4912 25.76 11.8934V12C25.929 12.3944 26.2097 12.7307 26.5674 12.9676C26.9251 13.2045 27.3443 13.3317 27.7733 13.3334H28C28.7072 13.3334 29.3855 13.6143 29.8856 14.1144C30.3857 14.6145 30.6667 15.2928 30.6667 16C30.6667 16.7073 30.3857 17.3856 29.8856 17.8857C29.3855 18.3858 28.7072 18.6667 28 18.6667H27.88C27.4509 18.6684 27.0318 18.7956 26.674 19.0325C26.3163 19.2694 26.0357 19.6057 25.8667 20Z" stroke="#F1F1F1" stroke-width="2.5" stroke-linecap="round" stroke-linejoin="round"/>
  </g>
  <defs>
    <clipPath id="clip0_9_88">
      <rect width="32" height="32" fill="white"/>
    </clipPath>
  </defs>
</svg>
