<svg width="16" height="16" viewBox="0 0 16 16" fill="none" xmlns="http://www.w3.org/2000/svg">
<g clip-path="url(#clip0_31_568)">
<path d="M11.333 2.00001C11.5081 1.82491 11.716 1.68602 11.9447 1.59126C12.1735 1.4965 12.4187 1.44772 12.6663 1.44772C12.914 1.44772 13.1592 1.4965 13.3879 1.59126C13.6167 1.68602 13.8246 1.82491 13.9997 2.00001C14.1748 2.1751 14.3137 2.38297 14.4084 2.61175C14.5032 2.84052 14.552 3.08572 14.552 3.33334C14.552 3.58096 14.5032 3.82616 14.4084 4.05494C14.3137 4.28371 14.1748 4.49158 13.9997 4.66667L4.99967 13.6667L1.33301 14.6667L2.33301 11L11.333 2.00001Z" stroke="#F0F0F0" stroke-width="1.5" stroke-linecap="round" stroke-linejoin="round"/>
</g>
<defs>
<clipPath id="clip0_31_568">
<rect width="16" height="16" fill="white"/>
</clipPath>
</defs>
</svg>
